PathFileType	4	(X/Y/Z)	C:\Users\visiteur\Documents\Sourcetree_OSPipeline\dataTest\rep_global_FRMB_Diane\AM02SH\Statique\Static_B_ref.trc
DataRate	CameraRate	NumFrames	NumMarkers	Units	OrigDataRate	OrigDataStartFrame	OrigNumFrames
100	100	7	59	m	100	49	240
Frame#	Time	MTTETE			TEMPG			OCCG			OCCD			TEMPD			MAN			C7			T8			XYP			COSTALD			COSTALG			MTACDL			MTACDM			MTACDB			ACD			CLAVD			MTACGL			MTACGM			MTACGB			ACG			CLAVG			MTBHAG			MTBHPG			MTBBPG			MTBBAG			ELG			EMG			MTABG			PSRG			PSUG			MC2G			MC5G			MTBHAD			MTBHPD			MTBBPD			MTBBAD			ELD			EMD			MTABD			PSRD			PSUD			MC2D			MC5D			FRMA			FRMRD			FRMRG			FRMAD			FRMAG			FRMT			SCLHMD			SCLHLD			AAD			AID			TSD			AAG			AIG			TSG			SCLHMG			SCLHLG			
		X1	Y1	Z1	X2	Y2	Z2	X3	Y3	Z3	X4	Y4	Z4	X5	Y5	Z5	X6	Y6	Z6	X7	Y7	Z7	X8	Y8	Z8	X9	Y9	Z9	X10	Y10	Z10	X11	Y11	Z11	X12	Y12	Z12	X13	Y13	Z13	X14	Y14	Z14	X15	Y15	Z15	X16	Y16	Z16	X17	Y17	Z17	X18	Y18	Z18	X19	Y19	Z19	X20	Y20	Z20	X21	Y21	Z21	X22	Y22	Z22	X23	Y23	Z23	X24	Y24	Z24	X25	Y25	Z25	X26	Y26	Z26	X27	Y27	Z27	X28	Y28	Z28	X29	Y29	Z29	X30	Y30	Z30	X31	Y31	Z31	X32	Y32	Z32	X33	Y33	Z33	X34	Y34	Z34	X35	Y35	Z35	X36	Y36	Z36	X37	Y37	Z37	X38	Y38	Z38	X39	Y39	Z39	X40	Y40	Z40	X41	Y41	Z41	X42	Y42	Z42	X43	Y43	Z43	X44	Y44	Z44	X45	Y45	Z45	X46	Y46	Z46	X47	Y47	Z47	X48	Y48	Z48	X49	Y49	Z49	X50	Y50	Z50	X51	Y51	Z51	X52	Y52	Z52	X53	Y53	Z53	X54	Y54	Z54	X55	Y55	Z55	X56	Y56	Z56	X57	Y57	Z57	X58	Y58	Z58	X59	Y59	Z59	
1	0.0100	0.245980	1.650615	0.018317	0.322661	1.629893	-0.025346	0.330789	1.590471	-0.139712	0.160543	1.598976	-0.148815	0.152250	1.630724	-0.042068	0.237713	1.420928	-0.045930	0.243828	1.471557	-0.215558	0.262891	1.259547	-0.237124	0.230891	1.249032	0.026785	0.160993	1.193737	0.023892	0.325945	1.191316	0.045008	0.107509	1.444608	-0.230316	0.155099	1.445337	-0.260253	0.119450	1.423846	-0.262091	0.098571	1.472867	-0.200229	0.156999	1.458970	-0.093980	0.386847	1.463604	-0.209582	0.340646	1.475661	-0.239752	0.374829	1.450513	-0.243021	0.384202	1.493656	-0.171518	0.311193	1.462123	-0.070411	0.498678	1.484580	-0.210089	0.509561	1.391287	-0.196854	0.598287	1.404363	-0.177531	0.589655	1.457627	-0.185501	0.691228	1.485694	-0.147555	0.688999	1.448037	-0.080053	0.809205	1.579268	-0.103623	0.913786	1.617057	-0.112908	0.931467	1.543977	-0.107035	0.999645	1.619362	-0.131501	1.008351	1.562235	-0.102046	0.013024	1.480437	-0.225100	0.010162	1.435844	-0.252641	-0.074872	1.445760	-0.220723	-0.074801	1.505687	-0.184361	-0.210127	1.447891	-0.172726	-0.215519	1.416110	-0.102503	-0.358035	1.578622	-0.119440	-0.413328	1.607054	-0.105687	-0.448308	1.538307	-0.126186	-0.496354	1.639716	-0.147229	-0.515774	1.564744	-0.129075	-2.155386	0.341006	0.215368	-2.461989	0.314062	0.540436	-1.858129	0.309359	0.566594	-2.369575	0.340310	1.051936	-2.003299	0.342602	1.067190	-2.012526	0.257915	1.144406	0.266438	1.517202	-0.299439	0.049638	1.537299	-0.190972	0.079744	1.442843	-0.206193	0.135182	1.270261	-0.233111	0.180037	1.353666	-0.256803	0.405282	1.433736	-0.197177	0.341864	1.264480	-0.227387	0.303117	1.350223	-0.253394	0.228476	1.518264	-0.300490	0.439729	1.526387	-0.180168	
2	0.0200	0.245948	1.650504	0.018484	0.322620	1.629803	-0.025133	0.330889	1.590533	-0.139601	0.160620	1.599073	-0.148809	0.152277	1.630681	-0.042000	0.237747	1.420862	-0.045975	0.243854	1.471537	-0.215503	0.262921	1.259534	-0.237044	0.231019	1.249009	0.026839	0.161051	1.193661	0.024008	0.326039	1.191271	0.045035	0.107558	1.444503	-0.230239	0.155148	1.445307	-0.260253	0.119502	1.423750	-0.262068	0.098599	1.472745	-0.200231	0.157021	1.458904	-0.093949	0.386884	1.463500	-0.209621	0.340654	1.475524	-0.239744	0.374924	1.450484	-0.243229	0.384276	1.493509	-0.171547	0.311288	1.462049	-0.070410	0.498787	1.484336	-0.210151	0.509587	1.391043	-0.196874	0.598308	1.404129	-0.177571	0.589721	1.457390	-0.185580	0.691347	1.485447	-0.147683	0.689070	1.447809	-0.080149	0.809348	1.578976	-0.103760	0.913919	1.616720	-0.113120	0.931618	1.543642	-0.107204	0.999804	1.619086	-0.131687	1.008421	1.561851	-0.102119	0.013125	1.480412	-0.225100	0.010172	1.435755	-0.252590	-0.074862	1.445624	-0.220679	-0.074788	1.505537	-0.184309	-0.210090	1.447770	-0.172654	-0.215435	1.415995	-0.102404	-0.357999	1.578435	-0.119348	-0.413324	1.606853	-0.105595	-0.448359	1.538107	-0.126105	-0.496362	1.639474	-0.147070	-0.515750	1.564520	-0.128990	-2.155391	0.341018	0.215327	-2.461995	0.314047	0.540420	-1.858129	0.309359	0.566594	-2.369579	0.340317	1.051904	-2.003300	0.342605	1.067173	-2.012526	0.257915	1.144406	0.266241	1.517339	-0.299706	0.049517	1.537070	-0.191019	0.079839	1.442665	-0.206127	0.135672	1.270179	-0.232838	0.180294	1.353657	-0.256713	0.405271	1.433765	-0.197064	0.341673	1.264545	-0.227101	0.303074	1.350299	-0.253294	0.228718	1.518365	-0.300751	0.439816	1.526396	-0.180150	
3	0.0300	0.245967	1.650391	0.018647	0.322651	1.629742	-0.024966	0.330951	1.590630	-0.139448	0.160733	1.599169	-0.148768	0.152269	1.630632	-0.041962	0.237847	1.420861	-0.045965	0.243904	1.471539	-0.215458	0.262912	1.259534	-0.236962	0.231094	1.248956	0.026910	0.161142	1.193644	0.024101	0.326111	1.191224	0.045077	0.107610	1.444375	-0.230153	0.155190	1.445235	-0.260221	0.119508	1.423637	-0.261992	0.098636	1.472643	-0.200206	0.157085	1.458833	-0.093948	0.386962	1.463416	-0.209631	0.340701	1.475454	-0.239716	0.374957	1.450367	-0.243203	0.384369	1.493405	-0.171616	0.311299	1.461973	-0.070413	0.498860	1.484139	-0.210214	0.509609	1.390788	-0.196878	0.598414	1.403908	-0.177638	0.589785	1.457139	-0.185611	0.691441	1.485191	-0.147766	0.689175	1.447594	-0.080251	0.809509	1.578656	-0.103870	0.914084	1.616357	-0.113229	0.931752	1.543279	-0.107309	0.999996	1.618722	-0.131836	1.008550	1.561481	-0.102194	0.013172	1.480313	-0.225039	0.010212	1.435660	-0.252537	-0.074816	1.445492	-0.220589	-0.074783	1.505432	-0.184239	-0.210041	1.447624	-0.172560	-0.215356	1.415869	-0.102265	-0.357991	1.578242	-0.119226	-0.413297	1.606659	-0.105492	-0.448290	1.537925	-0.126027	-0.496376	1.639268	-0.146947	-0.515742	1.564292	-0.128879	-2.155396	0.340993	0.215359	-2.461958	0.314018	0.540430	-1.858100	0.309393	0.566581	-2.369544	0.340320	1.051937	-2.003323	0.342641	1.067196	-2.012386	0.258012	1.144372	0.266078	1.517366	-0.299960	0.049442	1.536891	-0.191061	0.079927	1.442515	-0.206022	0.136061	1.270086	-0.232464	0.180495	1.353602	-0.256551	0.405263	1.433525	-0.197083	0.341235	1.264416	-0.226826	0.302867	1.350221	-0.253189	0.228962	1.518392	-0.300980	0.440044	1.526097	-0.180329	
4	0.0400	0.245914	1.650284	0.018801	0.322643	1.629654	-0.024773	0.331113	1.590744	-0.139345	0.160867	1.599264	-0.148760	0.152274	1.630579	-0.041938	0.237929	1.420824	-0.045977	0.243951	1.471515	-0.215433	0.262950	1.259515	-0.236862	0.231222	1.248971	0.026998	0.161234	1.193670	0.024208	0.326255	1.191204	0.045130	0.107612	1.444267	-0.230129	0.155215	1.445189	-0.260205	0.119586	1.423578	-0.261947	0.098654	1.472570	-0.200145	0.157154	1.458779	-0.093903	0.387026	1.463272	-0.209685	0.340734	1.475344	-0.239733	0.374948	1.450249	-0.243228	0.384464	1.493292	-0.171623	0.311406	1.461950	-0.070415	0.498713	1.483662	-0.209983	0.509643	1.390550	-0.196916	0.598502	1.403667	-0.177727	0.589899	1.456878	-0.185627	0.691520	1.484921	-0.147830	0.689258	1.447372	-0.080370	0.809677	1.578365	-0.104011	0.914302	1.616030	-0.113408	0.931871	1.542906	-0.107454	1.000179	1.618182	-0.131984	1.008678	1.560990	-0.102260	0.013228	1.480231	-0.224973	0.010221	1.435564	-0.252464	-0.074767	1.445348	-0.220525	-0.074766	1.505328	-0.184188	-0.210002	1.447487	-0.172490	-0.215316	1.415703	-0.102144	-0.357947	1.578094	-0.119168	-0.413274	1.606490	-0.105385	-0.448265	1.537694	-0.125931	-0.496340	1.639090	-0.146867	-0.515710	1.564094	-0.128791	-2.155400	0.341002	0.215364	-2.461979	0.314049	0.540431	-1.858092	0.309397	0.566581	-2.369601	0.340342	1.051934	-2.003328	0.342652	1.067194	-2.012332	0.258061	1.144380	0.266021	1.517264	-0.300037	0.049473	1.536825	-0.190969	0.079938	1.442444	-0.205942	0.136034	1.270005	-0.232407	0.180456	1.353515	-0.256540	0.405364	1.433521	-0.197045	0.341439	1.264373	-0.226792	0.303040	1.350154	-0.253189	0.229072	1.518278	-0.301047	0.440088	1.526115	-0.180290	
5	0.0500	0.245969	1.650126	0.018929	0.322648	1.629611	-0.024555	0.331206	1.590847	-0.139149	0.160923	1.599356	-0.148797	0.152295	1.630545	-0.041911	0.237977	1.420802	-0.045986	0.243983	1.471510	-0.215367	0.262945	1.259514	-0.236803	0.231340	1.248965	0.027094	0.161337	1.193612	0.024283	0.326339	1.191168	0.045152	0.107662	1.444233	-0.230088	0.155258	1.445160	-0.260194	0.119584	1.423544	-0.261880	0.098740	1.472492	-0.200083	0.157219	1.458717	-0.093893	0.387072	1.463146	-0.209697	0.340801	1.475251	-0.239736	0.375046	1.450168	-0.243242	0.384541	1.493219	-0.171710	0.311541	1.461882	-0.070429	0.499038	1.483719	-0.210304	0.509696	1.390362	-0.196975	0.598558	1.403427	-0.177780	0.589975	1.456638	-0.185680	0.691634	1.484617	-0.147969	0.689377	1.447169	-0.080432	0.809857	1.578074	-0.104179	0.914519	1.615673	-0.113572	0.932026	1.542534	-0.107626	1.000321	1.617840	-0.132227	1.008903	1.560568	-0.102627	0.013263	1.480139	-0.224907	0.010244	1.435494	-0.252427	-0.074712	1.445208	-0.220445	-0.074739	1.505210	-0.184118	-0.209942	1.447332	-0.172373	-0.215283	1.415621	-0.102040	-0.357945	1.577942	-0.119068	-0.413286	1.606325	-0.105285	-0.448177	1.537574	-0.125779	-0.496397	1.638872	-0.146783	-0.515707	1.563887	-0.128660	-2.155407	0.341014	0.215353	-2.461958	0.314018	0.540430	-1.858089	0.309458	0.566556	-2.369575	0.340307	1.051937	-2.003328	0.342652	1.067193	-2.012456	0.258030	1.144376	0.266081	1.517209	-0.300009	0.049599	1.536763	-0.190810	0.080005	1.442383	-0.205905	0.135994	1.269944	-0.232594	0.180449	1.353457	-0.256655	0.405390	1.433605	-0.196996	0.341736	1.264394	-0.226960	0.303227	1.350145	-0.253293	0.229040	1.518208	-0.301023	0.439965	1.526233	-0.180121	
6	0.0600	0.245997	1.650048	0.019050	0.322641	1.629550	-0.024334	0.331349	1.590953	-0.138983	0.161075	1.599466	-0.148811	0.152284	1.630489	-0.041905	0.237999	1.420756	-0.046003	0.244075	1.471490	-0.215313	0.262975	1.259514	-0.236680	0.231463	1.248927	0.027126	0.161392	1.193600	0.024352	0.326467	1.191161	0.045217	0.107715	1.444181	-0.230026	0.155283	1.445135	-0.260149	0.119620	1.423469	-0.261848	0.098786	1.472450	-0.200048	0.157262	1.458680	-0.093876	0.387220	1.463035	-0.209729	0.340879	1.475168	-0.239729	0.375081	1.450062	-0.243265	0.384663	1.493108	-0.171738	0.311638	1.461828	-0.070447	0.499140	1.483571	-0.210372	0.509774	1.390193	-0.197024	0.598678	1.403201	-0.177820	0.590059	1.456443	-0.185707	0.691761	1.484384	-0.148043	0.689516	1.446929	-0.080551	0.810034	1.577758	-0.104333	0.914736	1.615281	-0.113799	0.932185	1.542181	-0.107794	1.000520	1.617338	-0.132396	1.009082	1.560189	-0.102824	0.013295	1.480073	-0.224852	0.010274	1.435383	-0.252382	-0.074658	1.445078	-0.220363	-0.074695	1.505115	-0.184056	-0.209884	1.447188	-0.172291	-0.215213	1.415506	-0.101950	-0.357923	1.577778	-0.118999	-0.413241	1.606160	-0.105206	-0.448095	1.537474	-0.125666	-0.496366	1.638683	-0.146712	-0.515686	1.563705	-0.128644	-2.155396	0.341015	0.215361	-2.461976	0.314048	0.540442	-1.858102	0.309397	0.566584	-2.369600	0.340315	1.051950	-2.003359	0.342635	1.067214	-2.012475	0.258021	1.144380	0.266023	1.517239	-0.300116	0.049590	1.536682	-0.190801	0.080076	1.442318	-0.205832	0.136213	1.269909	-0.232403	0.180574	1.353443	-0.256565	0.405541	1.433827	-0.196697	0.342075	1.264538	-0.226625	0.303551	1.350234	-0.253113	0.229328	1.518196	-0.301146	0.440012	1.526496	-0.179842	
7	0.0700	0.245945	1.649972	0.019192	0.322676	1.629564	-0.024228	0.331498	1.591023	-0.138869	0.161185	1.599562	-0.148831	0.152315	1.630500	-0.041918	0.238040	1.420724	-0.045956	0.244138	1.471482	-0.215251	0.263032	1.259505	-0.236601	0.231594	1.248905	0.027183	0.161522	1.193590	0.024465	0.326529	1.191124	0.045243	0.107782	1.444121	-0.230002	0.155287	1.445103	-0.260146	0.119635	1.423398	-0.261784	0.098841	1.472354	-0.199983	0.157329	1.458626	-0.093831	0.387323	1.462914	-0.209727	0.340998	1.475101	-0.239717	0.375152	1.449944	-0.243267	0.384761	1.492988	-0.171760	0.311759	1.461754	-0.070486	0.499217	1.483378	-0.210389	0.509853	1.390053	-0.197104	0.598756	1.402976	-0.177878	0.590153	1.456265	-0.185777	0.691865	1.484186	-0.148133	0.689666	1.446695	-0.080663	0.810208	1.577462	-0.104503	0.914952	1.614941	-0.114025	0.932368	1.541823	-0.107956	1.000754	1.617066	-0.132688	1.009216	1.559818	-0.102957	0.013325	1.479978	-0.224795	0.010343	1.435311	-0.252287	-0.074601	1.444928	-0.220252	-0.074665	1.505027	-0.184002	-0.209826	1.447050	-0.172172	-0.215171	1.415349	-0.101821	-0.357878	1.577611	-0.118927	-0.413217	1.605986	-0.105108	-0.448094	1.537245	-0.125543	-0.496182	1.638461	-0.146707	-0.515664	1.563491	-0.128544	-2.155413	0.341027	0.215347	-2.462001	0.314038	0.540443	-1.858126	0.309437	0.566602	-2.369600	0.340315	1.051950	-2.003325	0.342652	1.067204	-2.012353	0.258066	1.144415	0.266006	1.517388	-0.300061	0.049597	1.536537	-0.190645	0.080152	1.442214	-0.205795	0.136414	1.269879	-0.232584	0.180701	1.353476	-0.256667	0.405625	1.433937	-0.196554	0.342293	1.264644	-0.226739	0.303746	1.350347	-0.253173	0.229474	1.518317	-0.301099	0.440022	1.526609	-0.179559	
